<?xml version="1.0" standalone="no"?>
<!DOCTYPE svg PUBLIC "-//W3C//DTD SVG 20010904//EN"
 "http://www.w3.org/TR/2001/REC-SVG-20010904/DTD/svg10.dtd">
<svg id='upriLogo' version="1.0" xmlns="http://www.w3.org/2000/svg"
 width="2000.000000pt" height="2000.000000pt" viewBox="0 0 2000.000000 2000.000000"
 preserveAspectRatio="xMidYMid meet">
<metadata>
Created by potrace 1.16, written by Peter Selinger 2001-2019
</metadata>
<g transform="translate(0.000000,2000.000000) scale(0.100000,-0.100000)" stroke="none">
<path id='bow1' d="M11410 16124 c-19 -2 -91 -9 -160 -14 -270 -23 -652 -91 -960 -171
-926 -240 -2214 -919 -3610 -1904 -227 -160 -815 -599 -826 -616 -4 -7 0 -9
12 -5 48 15 522 119 729 160 1002 197 1812 252 2545 170 310 -34 729 -114
1023 -194 1213 -333 2255 -1052 3014 -2080 376 -510 726 -1170 981 -1850 143
-380 278 -840 328 -1113 3 -21 10 -35 14 -30 5 4 17 78 29 163 63 468 121
1366 151 2375 40 1301 -153 2532 -537 3435 -111 260 -273 541 -410 710 -82
101 -346 359 -463 452 -337 268 -724 430 -1180 493 -109 15 -595 29 -680 19z"/>
<path id='bow2' d="M8865 13611 c-403 -162 -1461 -689 -2215 -1103 -1309 -718 -2372
-1648 -2884 -2521 -148 -252 -253 -550 -315 -896 -161 -893 174 -1723 1097
-2718 502 -541 1340 -1131 2437 -1715 229 -122 744 -379 990 -493 396 -184
1059 -469 1076 -463 5 2 -51 66 -123 143 -841 898 -1420 1698 -1752 2419 -274
598 -463 1234 -536 1811 -33 263 -43 423 -43 700 0 829 174 1602 539 2386 405
874 1083 1786 1829 2462 22 20 36 37 30 37 -5 0 -64 -22 -130 -49z"/>
<path id='bow3' d="M15770 11152 c-350 -1162 -760 -2076 -1228 -2737 -613 -867 -1365
-1520 -2227 -1936 -652 -314 -1311 -488 -2075 -548 -898 -71 -2030 64 -2904
345 -60 19 -110 33 -113 30 -6 -6 216 -177 397 -306 429 -307 1414 -945 1925
-1247 1174 -695 2419 -1119 3375 -1150 286 -9 478 13 756 87 790 210 1289 632
1700 1435 249 487 439 1061 533 1615 92 535 125 1012 125 1770 0 636 -21 1079
-80 1735 -37 412 -114 1068 -127 1081 -2 2 -27 -76 -57 -174z"/>
<path d="M10565 13085 c-276 -51 -513 -180 -707 -384 -220 -231 -339 -511
-354 -836 -18 -371 116 -717 380 -981 153 -153 310 -249 510 -313 451 -144
934 -25 1271 313 186 187 301 400 357 659 30 144 30 380 -1 524 -104 491 -464
872 -938 995 -102 26 -140 30 -278 34 -113 2 -183 -1 -240 -11z"/>
<path d="M7880 10034 c-14 -2 -59 -9 -100 -15 -278 -41 -597 -222 -780 -443
-338 -409 -402 -966 -164 -1416 183 -345 491 -572 889 -656 111 -24 350 -24
469 0 540 106 936 493 1053 1028 13 61 18 126 18 248 0 182 -14 270 -67 420
-147 415 -514 731 -950 815 -81 16 -318 28 -368 19z"/>
<path d="M11729 9124 c-515 -93 -915 -483 -1019 -993 -25 -124 -27 -338 -5
-467 63 -360 280 -678 599 -878 376 -236 872 -260 1268 -60 354 178 604 517
673 911 19 111 19 314 -1 428 -91 529 -511 952 -1046 1056 -118 23 -352 25
-469 3z"/>
</g>
</svg>
